<svg xmlns="http://www.w3.org/2000/svg" width="32.22" height="34.715" viewBox="0 0 32.22 34.715">
  <g id="그룹_610" data-name="그룹 610" transform="translate(-3.89 -2.642)">
    <g id="그룹_608" data-name="그룹 608">
      <g id="그룹_575" data-name="그룹 575">
        <path id="패스_2317" data-name="패스 2317" d="M4.032,17.98a.659.659,0,1,1,1.148.44L6,19.688l-.7,1.027-.61-2.077A.658.658,0,0,1,4.032,17.98Z" fill="#fff"/>
        <path id="패스_2318" data-name="패스 2318" d="M5.3,20.856H5.278a.144.144,0,0,1-.114-.1l-.582-1.983a.8.8,0,1,1,.771-.345l.766,1.185a.141.141,0,0,1,0,.156l-.7,1.027A.142.142,0,0,1,5.3,20.856Zm-.61-3.394a.518.518,0,0,0,0,1.035.143.143,0,0,1,.136.1l.526,1.79.479-.7L5.061,18.5a.142.142,0,0,1,.014-.172.517.517,0,0,0-.385-.863Z" fill="#040000"/>
      </g>
      <g id="그룹_607" data-name="그룹 607">
        <g id="그룹_576" data-name="그룹 576">
          <path id="패스_2319" data-name="패스 2319" d="M35.968,17.98a.658.658,0,1,0-1.148.44L34,19.688l.7,1.027.61-2.077A.658.658,0,0,0,35.968,17.98Z" fill="#fff"/>
          <path id="패스_2320" data-name="패스 2320" d="M34.7,20.856a.142.142,0,0,1-.117-.061l-.7-1.027a.141.141,0,0,1,0-.156l.766-1.185a.8.8,0,1,1,.771.345l-.583,1.983a.142.142,0,0,1-.113.1Zm-.531-1.17.479.7.526-1.79a.143.143,0,0,1,.136-.1.519.519,0,1,0-.385-.172.142.142,0,0,1,.014.172Z" fill="#040000"/>
        </g>
        <g id="그룹_587" data-name="그룹 587">
          <g id="그룹_581" data-name="그룹 581">
            <g id="그룹_579" data-name="그룹 579">
              <g id="그룹_577" data-name="그룹 577">
                <path id="패스_2321" data-name="패스 2321" d="M7.216,18.092a7.934,7.934,0,0,0-3.068,6.5,7.99,7.99,0,0,0,2.9,6.372A13.493,13.493,0,0,1,7.216,18.092Z" fill="#fff"/>
              </g>
              <g id="그룹_578" data-name="그룹 578">
                <path id="패스_2322" data-name="패스 2322" d="M6.7,24.352a13.031,13.031,0,0,1,2.043-7.033,5.59,5.59,0,0,0-1.527.773,13.493,13.493,0,0,0-.169,12.869,5.541,5.541,0,0,0,2.208,1.033A12.186,12.186,0,0,1,6.7,24.352Z" fill="#00818e"/>
              </g>
            </g>
            <g id="그룹_580" data-name="그룹 580">
              <path id="패스_2323" data-name="패스 2323" d="M9.255,32.034a.152.152,0,0,1-.03,0,5.652,5.652,0,0,1-2.263-1.059,8.109,8.109,0,0,1-2.955-6.484,8.124,8.124,0,0,1,3.127-6.612h0A5.737,5.737,0,0,1,8.7,17.083a.142.142,0,0,1,.162.211,12.949,12.949,0,0,0-2.021,6.957,12.079,12.079,0,0,0,2.525,7.554.142.142,0,0,1-.111.229ZM7.3,18.106A7.841,7.841,0,0,0,4.29,24.488a7.83,7.83,0,0,0,2.843,6.26,5.455,5.455,0,0,0,1.767.909A12.394,12.394,0,0,1,6.559,24.25a13.247,13.247,0,0,1,1.85-6.76,5.612,5.612,0,0,0-1.112.616Z" fill="#040000"/>
            </g>
          </g>
          <g id="그룹_586" data-name="그룹 586">
            <g id="그룹_584" data-name="그룹 584">
              <g id="그룹_582" data-name="그룹 582">
                <path id="패스_2324" data-name="패스 2324" d="M32.691,18.1a7.935,7.935,0,0,1,3.121,6.471,7.992,7.992,0,0,1-2.846,6.4A13.492,13.492,0,0,0,32.691,18.1Z" fill="#fff"/>
              </g>
              <g id="그룹_583" data-name="그룹 583">
                <path id="패스_2325" data-name="패스 2325" d="M33.258,24.352a13.039,13.039,0,0,0-2.1-7.016,5.607,5.607,0,0,1,1.534.761,13.492,13.492,0,0,1,.275,12.867,5.542,5.542,0,0,1-2.2,1.051A12.182,12.182,0,0,0,33.258,24.352Z" fill="#00818e"/>
              </g>
            </g>
            <g id="그룹_585" data-name="그룹 585">
              <path id="패스_2326" data-name="패스 2326" d="M30.766,32.055a.142.142,0,0,1-.112-.228,12.072,12.072,0,0,0,2.462-7.575,12.945,12.945,0,0,0-2.078-6.94.141.141,0,0,1,.16-.212,5.745,5.745,0,0,1,1.573.78h0a8.122,8.122,0,0,1,3.181,6.585,8.11,8.11,0,0,1-2.9,6.509A5.648,5.648,0,0,1,30.8,32.051.11.11,0,0,1,30.766,32.055Zm.727-14.55A13.26,13.26,0,0,1,33.4,24.249a12.388,12.388,0,0,1-2.28,7.426,5.461,5.461,0,0,0,1.759-.924,7.829,7.829,0,0,0,2.792-6.283,7.842,7.842,0,0,0-3.061-6.357A5.568,5.568,0,0,0,31.493,17.5Z" fill="#040000"/>
            </g>
          </g>
        </g>
        <g id="그룹_588" data-name="그룹 588">
          <path id="패스_2327" data-name="패스 2327" d="M26.757,13.018l3.025-3.811s2.523-3.363-.912-5.644c0,0-3.193-2.209-5.088.813a8.434,8.434,0,0,0-.669,1.462,37.938,37.938,0,0,0-.972,5.609,14.57,14.57,0,0,0-4.365-.017c-.095-.894-4.647,1.546-4.647,1.546a12.87,12.87,0,0,0-6.9,11.269c0,7.164,6.122,12.971,13.673,12.971s13.674-5.807,13.674-12.971A12.861,12.861,0,0,0,26.757,13.018Z" fill="#3cb7c0"/>
          <path id="패스_2328" data-name="패스 2328" d="M19.905,37.357c-7.617,0-13.815-5.882-13.815-13.112a13.05,13.05,0,0,1,6.972-11.393c.655-.351,3.954-2.081,4.676-1.7a.332.332,0,0,1,.132.122,14.766,14.766,0,0,1,4.146.011A37.56,37.56,0,0,1,22.977,5.8,8.493,8.493,0,0,1,23.66,4.3a3.29,3.29,0,0,1,2.129-1.6,4.586,4.586,0,0,1,3.161.74,3.837,3.837,0,0,1,1.817,2.537A4.759,4.759,0,0,1,29.9,9.292l-2.924,3.683A13.563,13.563,0,0,1,31.818,17.6a12.6,12.6,0,0,1,1.9,6.645C33.721,31.475,27.523,37.357,19.905,37.357ZM17.432,11.369A15.942,15.942,0,0,0,13.2,13.1,12.767,12.767,0,0,0,6.373,24.245c0,7.074,6.071,12.83,13.532,12.83s13.533-5.756,13.533-12.83a12.315,12.315,0,0,0-1.86-6.5,13.3,13.3,0,0,0-4.889-4.608l-.147-.08,3.129-3.942a4.548,4.548,0,0,0,.817-3.089,3.565,3.565,0,0,0-1.7-2.349,4.385,4.385,0,0,0-2.948-.7A3.015,3.015,0,0,0,23.9,4.452a8.327,8.327,0,0,0-.654,1.426,38.148,38.148,0,0,0-.967,5.584l-.015.148-.147-.023A14.429,14.429,0,0,0,17.8,11.57l-.146.022-.015-.147a.048.048,0,0,0-.03-.043A.379.379,0,0,0,17.432,11.369Z" fill="#231815"/>
        </g>
        <g id="그룹_589" data-name="그룹 589">
          <ellipse id="타원_33" data-name="타원 33" cx="8.699" cy="9.653" rx="8.699" ry="9.653" transform="translate(10.286 33.172) rotate(-89.848)" fill="#f9f9fa"/>
        </g>
        <g id="그룹_592" data-name="그룹 592">
          <g id="그룹_590" data-name="그룹 590">
            <path id="패스_2329" data-name="패스 2329" d="M17.047,23.556a.98.98,0,1,1-1.947,0,.981.981,0,1,1,1.947,0Z" fill="#231815"/>
          </g>
          <g id="그룹_591" data-name="그룹 591">
            <path id="패스_2330" data-name="패스 2330" d="M24.975,23.578a.98.98,0,1,1-1.947,0,.981.981,0,1,1,1.947,0Z" fill="#231815"/>
          </g>
        </g>
        <g id="그룹_596" data-name="그룹 596">
          <g id="그룹_593" data-name="그룹 593">
            <path id="패스_2331" data-name="패스 2331" d="M18,25.829a1.9,1.9,0,0,0,2.041,1.725,1.9,1.9,0,0,0,2.041-1.725" fill="#f9f9fa"/>
          </g>
          <g id="그룹_595" data-name="그룹 595">
            <g id="그룹_594" data-name="그룹 594">
              <path id="패스_2332" data-name="패스 2332" d="M17.821,25.829c.079,2.5,4.354,2.5,4.434,0,.007-.228-.346-.227-.353,0-.065,2.043-3.663,2.043-3.728,0-.007-.227-.36-.228-.353,0Z" fill="#231815"/>
            </g>
          </g>
        </g>
        <g id="그룹_597" data-name="그룹 597">
          <circle id="타원_34" data-name="타원 34" cx="0.642" cy="0.642" r="0.642" transform="translate(19.396 24.153)" fill="#3cb7c0"/>
          <path id="패스_2333" data-name="패스 2333" d="M20.038,25.579a.784.784,0,1,1,.784-.784A.785.785,0,0,1,20.038,25.579Zm0-1.285a.5.5,0,1,0,.5.5A.5.5,0,0,0,20.038,24.294Z" fill="#231815"/>
        </g>
        <g id="그룹_598" data-name="그룹 598">
          <path id="패스_2334" data-name="패스 2334" d="M16.23,23.11a.324.324,0,1,1-.324-.324A.324.324,0,0,1,16.23,23.11Z" fill="#fff"/>
        </g>
        <g id="그룹_599" data-name="그룹 599">
          <path id="패스_2335" data-name="패스 2335" d="M24.013,23.11a.325.325,0,1,1-.324-.324A.324.324,0,0,1,24.013,23.11Z" fill="#fff"/>
        </g>
        <g id="그룹_600" data-name="그룹 600">
          <line id="선_11" data-name="선 11" y2="2.067" transform="translate(20.038 25.483)" fill="#f9f9fa"/>
          <rect id="사각형_253" data-name="사각형 253" width="0.283" height="2.067" transform="translate(19.897 25.483)" fill="#231815"/>
        </g>
        <g id="그룹_601" data-name="그룹 601">
          <path id="패스_2336" data-name="패스 2336" d="M25.69,12.758l2.545-3.932S29.9,6.4,27.805,5.007a2.549,2.549,0,0,0-3.233.87,5.139,5.139,0,0,0-.409.892c-.394,1.331-.987,5.21-.987,5.21" fill="#f5f2c8"/>
        </g>
        <g id="그룹_602" data-name="그룹 602">
          <circle id="타원_35" data-name="타원 35" cx="1.405" cy="1.405" r="1.405" transform="translate(13.42 25.272)" fill="#f3aaa9"/>
        </g>
        <g id="그룹_603" data-name="그룹 603">
          <circle id="타원_36" data-name="타원 36" cx="1.405" cy="1.405" r="1.405" transform="translate(23.797 25.272)" fill="#f3aaa9"/>
        </g>
        <g id="그룹_604" data-name="그룹 604">
          <path id="패스_2337" data-name="패스 2337" d="M17.67,11.735s.938-6.118-2.756-6.594S8.209,6.3,9.077,9.917c0,0,.859,2.177,3.6,1.079,0,0,.848.561.637,2.277" fill="#3cb7c0"/>
          <path id="패스_2338" data-name="패스 2338" d="M13.312,13.415h-.018a.142.142,0,0,1-.123-.158,2.294,2.294,0,0,0-.52-2.1,3.164,3.164,0,0,1-2.425.088A2.525,2.525,0,0,1,8.945,9.969L8.939,9.95a3.787,3.787,0,0,1,.7-3.561C10.695,5.21,12.625,4.7,14.932,5a2.848,2.848,0,0,1,1.983,1.145,6.209,6.209,0,0,1,.995,3.54,12.234,12.234,0,0,1-.1,2.07.141.141,0,1,1-.279-.043,12.346,12.346,0,0,0,.1-2.023,6.215,6.215,0,0,0-.939-3.374A2.575,2.575,0,0,0,14.9,5.281c-2.181-.28-4.069.2-5.049,1.3a3.515,3.515,0,0,0-.636,3.3,2.316,2.316,0,0,0,.731.889,2.683,2.683,0,0,0,2.681.1.142.142,0,0,1,.13.013c.038.025.919.629.7,2.413A.142.142,0,0,1,13.312,13.415Z" fill="#231815"/>
        </g>
        <g id="그룹_605" data-name="그룹 605">
          <path id="패스_2339" data-name="패스 2339" d="M15.041,8.95s.216-.649.541-.541,1.189.649.972,3.351a6.992,6.992,0,0,0-2.325,1s-.044-1.855-.589-2.345A3.958,3.958,0,0,0,15.041,8.95Z" fill="#f5f2c8"/>
        </g>
        <g id="그룹_606" data-name="그룹 606">
          <path id="패스_2340" data-name="패스 2340" d="M12.675,11A6.047,6.047,0,0,0,15.041,8.95" fill="#3cb7c0"/>
          <path id="패스_2341" data-name="패스 2341" d="M12.676,11.138a.142.142,0,0,1-.06-.27,5.945,5.945,0,0,0,2.3-1.99.141.141,0,0,1,.244.143,6.118,6.118,0,0,1-2.428,2.1A.138.138,0,0,1,12.676,11.138Z" fill="#231815"/>
        </g>
      </g>
    </g>
  </g>
</svg>
