<svg width="36" height="34" viewBox="0 0 36 34" fill="none" xmlns="http://www.w3.org/2000/svg">
<path d="M17.8603 0.333336C14.4222 0.333336 11.0613 1.31082 8.20264 3.14218C5.34397 4.97353 3.1159 7.57651 1.8002 10.6219C0.484491 13.6674 0.140243 17.0185 0.810983 20.2515C1.48172 23.4845 3.13733 26.4542 5.56843 28.7851C7.99954 31.116 11.097 32.7033 14.469 33.3464C17.841 33.9895 21.3362 33.6595 24.5126 32.398C27.689 31.1365 30.4039 29.0003 32.314 26.2595C34.2241 23.5187 35.2437 20.2964 35.2437 17C35.2437 14.8113 34.794 12.644 33.9204 10.6219C33.0468 8.59985 31.7664 6.76253 30.1522 5.21489C28.538 3.66725 26.6217 2.43959 24.5126 1.60201C22.4036 0.764432 20.1431 0.333336 17.8603 0.333336ZM17.8603 30.3333C15.1098 30.3333 12.4211 29.5513 10.1342 28.0863C7.84724 26.6212 6.06478 24.5388 5.01222 22.1024C3.95966 19.6661 3.68426 16.9852 4.22085 14.3988C4.75744 11.8124 6.08192 9.43661 8.02681 7.57191C9.97169 5.70721 12.4496 4.43734 15.1473 3.92287C17.8449 3.4084 20.6411 3.67244 23.1822 4.68161C25.7233 5.69078 27.8952 7.39974 29.4233 9.5924C30.9514 11.7851 31.767 14.3629 31.767 17C31.767 20.5362 30.3018 23.9276 27.6938 26.4281C25.0858 28.9286 21.5486 30.3333 17.8603 30.3333Z" fill="white"/>
<path d="M17.8603 12C18.8204 12 19.5986 11.2538 19.5986 10.3333C19.5986 9.41282 18.8204 8.66663 17.8603 8.66663C16.9003 8.66663 16.122 9.41282 16.122 10.3333C16.122 11.2538 16.9003 12 17.8603 12Z" fill="white"/>
<path d="M17.8603 13.6666C17.3993 13.6666 16.9571 13.8422 16.6311 14.1547C16.3051 14.4673 16.122 14.8912 16.122 15.3333V23.6666C16.122 24.1086 16.3051 24.5325 16.6311 24.8451C16.9571 25.1577 17.3993 25.3333 17.8603 25.3333C18.3213 25.3333 18.7635 25.1577 19.0895 24.8451C19.4155 24.5325 19.5986 24.1086 19.5986 23.6666V15.3333C19.5986 14.8912 19.4155 14.4673 19.0895 14.1547C18.7635 13.8422 18.3213 13.6666 17.8603 13.6666Z" fill="white"/>
</svg>
